<svg xmlns="http://www.w3.org/2000/svg" viewBox="0 0 377.31 566.54"><defs><style>.cls-1{fill:#f1bf64;}.cls-2{fill:#3c82bf;}.cls-3{fill:none;stroke:#000;stroke-linecap:round;stroke-miterlimit:10;stroke-width:3px;}</style></defs><g id="Layer_5" data-name="Layer 5"><polygon class="cls-1" points="258.36 229.81 267.7 233.33 259.52 250.21 246.68 253.52 258.36 229.81"/><path class="cls-2" d="M377.31,196.09V385.28l-105-149-29.87-4.22c-28-4.3-57.5-6.28-84.86-13.34-18.9-4.88-35.44-16-52.52-25.06L80.21,201.3c-7.54,2.32-17.46,6.2-25.62,4S42.41,193.92,37.84,187.4l35.42-4.3h14.9l20.19-24.17-28.14,8.61c-6.24,1.91-16.28.77-22.81.8-10.16,0-20.68-1.18-29.5-6.62a31.21,31.21,0,0,1-11.31-11.79c-.55-1-4-10.53-4.9-10.53h114.2l-16.22-29.46-18.2,2.31c-11.76,1.5-23.69,2.26-35.42.12-8.4-1.54-16.68-4.21-23.86-8.83-10.84-7-15-15.28-18.52-27L14,71.87,80.54,85.11l108.58,76.8,5.38-19.86s6.86-41,6.87-41.05c-.11,1.21,17.76,6.2,19.53,6.79,25.81,8.7,47.27,24.46,68.38,41.43,14.11,11.32,28.52,22.6,44.71,30.83C347.7,187,362.89,191,377.31,196.09Z"/><rect class="cls-1" x="69.5" y="26.89" width="123.89" height="245.73" rx="17.13" transform="translate(19.53 -15.11) rotate(7.1)"/><rect x="83.49" y="37.25" width="96.75" height="223.18" rx="14.43" transform="translate(19.42 -15.16) rotate(7.1)"/><circle cx="146.44" cy="33.23" r="2.36"/><path class="cls-2" d="M201.37,101H138.14c-.31.07,3.56,15.37,3.86,16.6,3.34,13.48,17.52,19.6,29.92,22.25,8.83,1.89,17.92,2.23,27,2.55,5.86.21,5.27-3.39,4.94-7.87Q202.59,117.76,201.37,101Z"/><path class="cls-1" d="M334.77,249.91c-.52-3.35-3.71-7.75-6.14-5.39.5-28.46.89-57.65-8.62-84.48-3.41-9.63-8.44-19.25-17-24.78s-21.43-5.41-27.84,2.53l7.35,5.91,2-5.91c21.73-3.82,30.33,29.63,32.81,45.13.72,4.47,4.66,59.55,2.52,59.58A333.38,333.38,0,0,0,259.12,249c-7.17,1.44-10.69,2.1-12.44,4.49-1.53,2.08-1.72,5.47-1.83,11.81q-.25,15.81-.52,31.6-1,63.18-2.09,126.36l7,.09c-4.61,41.2-8.76,85.14,10,122.1,5.56,10.95,15.31,22.06,27.55,21,14-1.18,21.6-17.52,21.87-31.58s-3.77-28.38-.26-42c2.42-9.41,8.23-17.52,13.93-25.39l29.17-40.32c2.4-3.31,6.16-7.06,9.93-5.45Zm-33.24,227.3c-5.52,12.24-3.12,26.35-2.73,39.77a126.88,126.88,0,0,1-2,26.46c-.5,2.71-1.13,5.5-2.81,7.68-3,3.94-8.95,4.8-13.61,3.06s-8.26-5.57-11.1-9.66c-9-12.95-11.92-29.18-12.46-44.93-.16-4.71.7-66.65.19-66.65h36.2c12.82,0,28.91-2.37,41.16.43C328.6,451.81,309.25,460.1,301.53,477.21Z"/><path class="cls-3" d="M182.93,6.82c13.36,2,25.91,6.84,35.38,16.83C228,33.9,233.5,48.2,232.38,62.33"/><path class="cls-3" d="M189.39,22.58c7.22,3.3,15.35,6.12,20.89,12.08,6.63,7.12,6.67,18.43,7.05,27.62"/><path class="cls-3" d="M3.83,87.05a36.73,36.73,0,0,0,19.76,20.84"/><path class="cls-3" d="M11.82,158.51a100.84,100.84,0,0,0,10,11.55,33.88,33.88,0,0,0,12.86,8"/><line class="cls-3" x1="227.13" y1="278.69" x2="227.13" y2="397.98"/><path class="cls-3" d="M349.39,463.68c-9,8.37-18.26,17-24.18,27.94-8.25,15.19-4.5,32-5.71,48.38"/></g></svg>