<svg id="Layer_1" data-name="Layer 1" xmlns="http://www.w3.org/2000/svg" viewBox="0 0 642.66 642.66"><defs><style>.cls-1{fill:#3b82bf;}</style></defs><path class="cls-1" d="M490.4,198.08a72.1,72.1,0,0,0-40.6-40.61c-28-11.05-94.85-8.57-125.92-8.57s-97.8-2.58-125.92,8.57a72.12,72.12,0,0,0-40.61,40.61c-11,28-8.58,94.85-8.58,125.92s-2.57,97.8,8.58,125.92A72.12,72.12,0,0,0,198,490.53c28,11.05,94.84,8.57,125.92,8.57s97.8,2.58,125.92-8.57a72.07,72.07,0,0,0,40.6-40.61c11.16-28,8.58-94.85,8.58-125.92S501.56,226.2,490.4,198.08ZM323.88,433.52A109.52,109.52,0,1,1,433.4,324,109.35,109.35,0,0,1,323.88,433.52Zm114-198A25.55,25.55,0,1,1,463.43,210,25.48,25.48,0,0,1,437.88,235.54Z" transform="translate(-2.5 -2.67)"/><circle class="cls-1" cx="323.88" cy="324" r="71.2" transform="translate(-50.22 53.39) rotate(-9.22)"/><path class="cls-1" d="M323.83,2.67C146.36,2.67,2.5,146.53,2.5,324S146.36,645.33,323.83,645.33,645.16,501.47,645.16,324,501.3,2.67,323.83,2.67ZM536,412.08c-1.72,34.22-9.53,64.53-34.51,89.5s-55.28,32.89-89.5,34.51c-35.27,2-141,2-176.25,0-34.22-1.72-64.44-9.53-89.51-34.51s-32.89-55.28-34.51-89.5c-2-35.27-2-141,0-176.25,1.72-34.22,9.44-64.53,34.51-89.51s55.38-32.79,89.51-34.41c35.27-2,141-2,176.25,0,34.22,1.72,64.53,9.53,89.5,34.51s32.89,55.28,34.51,89.5C538,271.19,538,376.81,536,412.08Z" transform="translate(-2.5 -2.67)"/></svg>