<?xml version="1.0" encoding="UTF-8"?>
<svg xmlns="http://www.w3.org/2000/svg" xmlns:xlink="http://www.w3.org/1999/xlink" width="224.87999pt" height="299.999988pt" viewBox="0 0 224.87999 299.999988" version="1.2">
<defs>
<clipPath id="clip1">
  <path d="M 1.808594 2.492188 L 222.8125 2.492188 L 222.8125 297.832031 L 1.808594 297.832031 Z M 1.808594 2.492188 "/>
</clipPath>
</defs>
<g id="surface1">
<g clip-path="url(#clip1)" clip-rule="nonzero">
<path style=" stroke:none;fill-rule:nonzero;fill:rgb(100%,75.689697%,2.749634%);fill-opacity:1;" d="M 112.308594 2.492188 C 51.367188 2.492188 1.808594 52.21875 1.808594 113.367188 C 1.808594 190.222656 101.554688 291.195312 105.789062 295.464844 C 107.59375 297.257812 109.953125 298.160156 112.308594 298.160156 C 114.667969 298.160156 117.023438 297.257812 118.828125 295.464844 C 123.066406 291.195312 222.8125 190.222656 222.8125 113.367188 C 222.8125 52.21875 173.25 2.492188 112.308594 2.492188 Z M 112.308594 2.492188 "/>
</g>
<path style=" stroke:none;fill-rule:nonzero;fill:rgb(98.039246%,98.039246%,98.039246%);fill-opacity:1;" d="M 167.5625 113.367188 C 167.5625 115.183594 167.472656 116.996094 167.292969 118.800781 C 167.117188 120.609375 166.851562 122.402344 166.5 124.183594 C 166.144531 125.964844 165.707031 127.722656 165.179688 129.460938 C 164.65625 131.199219 164.046875 132.90625 163.355469 134.582031 C 162.664062 136.261719 161.890625 137.898438 161.035156 139.5 C 160.183594 141.101562 159.253906 142.65625 158.25 144.167969 C 157.242188 145.675781 156.167969 147.132812 155.019531 148.535156 C 153.871094 149.941406 152.65625 151.285156 151.378906 152.566406 C 150.097656 153.851562 148.757812 155.070312 147.359375 156.222656 C 145.960938 157.375 144.511719 158.453125 143.003906 159.460938 C 141.5 160.472656 139.949219 161.402344 138.355469 162.257812 C 136.757812 163.117188 135.125 163.890625 133.453125 164.585938 C 131.78125 165.28125 130.078125 165.890625 128.347656 166.417969 C 126.617188 166.945312 124.863281 167.386719 123.089844 167.742188 C 121.3125 168.09375 119.527344 168.359375 117.726562 168.539062 C 115.925781 168.714844 114.121094 168.804688 112.308594 168.804688 C 110.5 168.804688 108.695312 168.714844 106.894531 168.539062 C 105.09375 168.359375 103.304688 168.09375 101.53125 167.742188 C 99.757812 167.386719 98.003906 166.945312 96.269531 166.417969 C 94.539062 165.890625 92.839844 165.28125 91.167969 164.585938 C 89.496094 163.890625 87.859375 163.117188 86.265625 162.257812 C 84.667969 161.402344 83.117188 160.472656 81.613281 159.460938 C 80.109375 158.453125 78.65625 157.375 77.257812 156.222656 C 75.859375 155.070312 74.519531 153.851562 73.242188 152.566406 C 71.960938 151.285156 70.75 149.941406 69.601562 148.535156 C 68.453125 147.132812 67.375 145.675781 66.371094 144.167969 C 65.363281 142.65625 64.4375 141.101562 63.582031 139.5 C 62.730469 137.898438 61.957031 136.261719 61.265625 134.582031 C 60.570312 132.90625 59.964844 131.199219 59.4375 129.460938 C 58.914062 127.722656 58.472656 125.964844 58.121094 124.183594 C 57.769531 122.402344 57.503906 120.609375 57.324219 118.800781 C 57.148438 116.996094 57.058594 115.183594 57.058594 113.367188 C 57.058594 111.550781 57.148438 109.742188 57.324219 107.933594 C 57.503906 106.125 57.769531 104.332031 58.121094 102.550781 C 58.472656 100.769531 58.914062 99.011719 59.4375 97.273438 C 59.964844 95.535156 60.570312 93.828125 61.265625 92.152344 C 61.957031 90.476562 62.730469 88.835938 63.582031 87.234375 C 64.4375 85.632812 65.363281 84.078125 66.371094 82.566406 C 67.375 81.058594 68.453125 79.601562 69.601562 78.199219 C 70.75 76.792969 71.960938 75.449219 73.242188 74.167969 C 74.519531 72.882812 75.859375 71.664062 77.257812 70.511719 C 78.65625 69.359375 80.109375 68.28125 81.613281 67.273438 C 83.117188 66.261719 84.667969 65.332031 86.265625 64.476562 C 87.859375 63.621094 89.496094 62.84375 91.167969 62.148438 C 92.839844 61.453125 94.539062 60.84375 96.269531 60.316406 C 98.003906 59.789062 99.757812 59.347656 101.53125 58.996094 C 103.304688 58.640625 105.09375 58.375 106.894531 58.195312 C 108.695312 58.019531 110.5 57.929688 112.308594 57.929688 C 114.121094 57.929688 115.925781 58.019531 117.726562 58.195312 C 119.527344 58.375 121.3125 58.640625 123.089844 58.996094 C 124.863281 59.347656 126.617188 59.789062 128.347656 60.316406 C 130.078125 60.84375 131.78125 61.453125 133.453125 62.148438 C 135.125 62.84375 136.757812 63.621094 138.355469 64.476562 C 139.949219 65.332031 141.5 66.261719 143.003906 67.273438 C 144.511719 68.28125 145.960938 69.359375 147.359375 70.511719 C 148.757812 71.664062 150.097656 72.882812 151.378906 74.167969 C 152.65625 75.449219 153.871094 76.792969 155.019531 78.199219 C 156.167969 79.601562 157.242188 81.058594 158.25 82.566406 C 159.253906 84.078125 160.183594 85.632812 161.035156 87.234375 C 161.890625 88.835938 162.664062 90.476562 163.355469 92.152344 C 164.046875 93.828125 164.65625 95.535156 165.179688 97.273438 C 165.707031 99.011719 166.144531 100.769531 166.5 102.550781 C 166.851562 104.332031 167.117188 106.125 167.292969 107.933594 C 167.472656 109.742188 167.5625 111.550781 167.5625 113.367188 Z M 167.5625 113.367188 "/>
</g>
</svg>
