<svg id="Layer_1" data-name="Layer 1" xmlns="http://www.w3.org/2000/svg" viewBox="0 0 496 496"><defs><style>.cls-1{fill:#3b82bf;}</style></defs><path class="cls-1" d="M259.11,13.94c-137,0-248,111-248,248s111,248,248,248,248-111,248-248S396.08,13.94,259.11,13.94ZM399.17,215.22c.21,3,.21,5.91.21,8.86,0,90.08-68.56,193.86-193.86,193.86a192.56,192.56,0,0,1-104.63-30.58,141.33,141.33,0,0,0,16.45.84,136.47,136.47,0,0,0,84.59-29.11,68.26,68.26,0,0,1-63.71-47.25,86.29,86.29,0,0,0,12.87,1.05A71.82,71.82,0,0,0,169,310.57a68.14,68.14,0,0,1-54.63-66.87v-.84a68.64,68.64,0,0,0,30.8,8.65,68.24,68.24,0,0,1-21.1-91.13,193.72,193.72,0,0,0,140.49,71.3,77.25,77.25,0,0,1-1.69-15.61,68.2,68.2,0,0,1,117.92-46.62A134.21,134.21,0,0,0,424.06,153a67.92,67.92,0,0,1-30,37.54A136.58,136.58,0,0,0,433.34,180,146.34,146.34,0,0,1,399.17,215.22Z" transform="translate(-11.11 -13.94)"/></svg>